<svg xmlns="http://www.w3.org/2000/svg" xmlns:xlink="http://www.w3.org/1999/xlink" style="margin:auto;background:#eddede;display:block;shape-rendering:auto" width="197" height="197" preserveAspectRatio="xMidYMid" viewBox="0 0 100 100"><g transform="rotate(0 50 50)"><rect width="2" height="3" x="49" y="25.5" fill="#efabab" rx="1" ry="1.5"><animate attributeName="opacity" begin="-0.8281573498964803s" dur="0.8695652173913042s" keyTimes="0;1" repeatCount="indefinite" values="1;0"/></rect></g><g transform="rotate(17.142857142857142 50 50)"><rect width="2" height="3" x="49" y="25.5" fill="#efabab" rx="1" ry="1.5"><animate attributeName="opacity" begin="-0.7867494824016562s" dur="0.8695652173913042s" keyTimes="0;1" repeatCount="indefinite" values="1;0"/></rect></g><g transform="rotate(34.285714285714285 50 50)"><rect width="2" height="3" x="49" y="25.5" fill="#efabab" rx="1" ry="1.5"><animate attributeName="opacity" begin="-0.7453416149068323s" dur="0.8695652173913042s" keyTimes="0;1" repeatCount="indefinite" values="1;0"/></rect></g><g transform="rotate(51.42857142857143 50 50)"><rect width="2" height="3" x="49" y="25.5" fill="#efabab" rx="1" ry="1.5"><animate attributeName="opacity" begin="-0.7039337474120082s" dur="0.8695652173913042s" keyTimes="0;1" repeatCount="indefinite" values="1;0"/></rect></g><g transform="rotate(68.57142857142857 50 50)"><rect width="2" height="3" x="49" y="25.5" fill="#efabab" rx="1" ry="1.5"><animate attributeName="opacity" begin="-0.6625258799171843s" dur="0.8695652173913042s" keyTimes="0;1" repeatCount="indefinite" values="1;0"/></rect></g><g transform="rotate(85.71428571428571 50 50)"><rect width="2" height="3" x="49" y="25.5" fill="#efabab" rx="1" ry="1.5"><animate attributeName="opacity" begin="-0.6211180124223602s" dur="0.8695652173913042s" keyTimes="0;1" repeatCount="indefinite" values="1;0"/></rect></g><g transform="rotate(102.85714285714286 50 50)"><rect width="2" height="3" x="49" y="25.5" fill="#efabab" rx="1" ry="1.5"><animate attributeName="opacity" begin="-0.5797101449275361s" dur="0.8695652173913042s" keyTimes="0;1" repeatCount="indefinite" values="1;0"/></rect></g><g transform="rotate(120 50 50)"><rect width="2" height="3" x="49" y="25.5" fill="#efabab" rx="1" ry="1.5"><animate attributeName="opacity" begin="-0.5383022774327122s" dur="0.8695652173913042s" keyTimes="0;1" repeatCount="indefinite" values="1;0"/></rect></g><g transform="rotate(137.14285714285714 50 50)"><rect width="2" height="3" x="49" y="25.5" fill="#efabab" rx="1" ry="1.5"><animate attributeName="opacity" begin="-0.49689440993788814s" dur="0.8695652173913042s" keyTimes="0;1" repeatCount="indefinite" values="1;0"/></rect></g><g transform="rotate(154.28571428571428 50 50)"><rect width="2" height="3" x="49" y="25.5" fill="#efabab" rx="1" ry="1.5"><animate attributeName="opacity" begin="-0.45548654244306414s" dur="0.8695652173913042s" keyTimes="0;1" repeatCount="indefinite" values="1;0"/></rect></g><g transform="rotate(171.42857142857142 50 50)"><rect width="2" height="3" x="49" y="25.5" fill="#efabab" rx="1" ry="1.5"><animate attributeName="opacity" begin="-0.41407867494824013s" dur="0.8695652173913042s" keyTimes="0;1" repeatCount="indefinite" values="1;0"/></rect></g><g transform="rotate(188.57142857142858 50 50)"><rect width="2" height="3" x="49" y="25.5" fill="#efabab" rx="1" ry="1.5"><animate attributeName="opacity" begin="-0.37267080745341613s" dur="0.8695652173913042s" keyTimes="0;1" repeatCount="indefinite" values="1;0"/></rect></g><g transform="rotate(205.71428571428572 50 50)"><rect width="2" height="3" x="49" y="25.5" fill="#efabab" rx="1" ry="1.5"><animate attributeName="opacity" begin="-0.33126293995859213s" dur="0.8695652173913042s" keyTimes="0;1" repeatCount="indefinite" values="1;0"/></rect></g><g transform="rotate(222.85714285714286 50 50)"><rect width="2" height="3" x="49" y="25.5" fill="#efabab" rx="1" ry="1.5"><animate attributeName="opacity" begin="-0.28985507246376807s" dur="0.8695652173913042s" keyTimes="0;1" repeatCount="indefinite" values="1;0"/></rect></g><g transform="rotate(240 50 50)"><rect width="2" height="3" x="49" y="25.5" fill="#efabab" rx="1" ry="1.5"><animate attributeName="opacity" begin="-0.24844720496894407s" dur="0.8695652173913042s" keyTimes="0;1" repeatCount="indefinite" values="1;0"/></rect></g><g transform="rotate(257.14285714285717 50 50)"><rect width="2" height="3" x="49" y="25.5" fill="#efabab" rx="1" ry="1.5"><animate attributeName="opacity" begin="-0.20703933747412007s" dur="0.8695652173913042s" keyTimes="0;1" repeatCount="indefinite" values="1;0"/></rect></g><g transform="rotate(274.2857142857143 50 50)"><rect width="2" height="3" x="49" y="25.5" fill="#efabab" rx="1" ry="1.5"><animate attributeName="opacity" begin="-0.16563146997929606s" dur="0.8695652173913042s" keyTimes="0;1" repeatCount="indefinite" values="1;0"/></rect></g><g transform="rotate(291.42857142857144 50 50)"><rect width="2" height="3" x="49" y="25.5" fill="#efabab" rx="1" ry="1.5"><animate attributeName="opacity" begin="-0.12422360248447203s" dur="0.8695652173913042s" keyTimes="0;1" repeatCount="indefinite" values="1;0"/></rect></g><g transform="rotate(308.57142857142856 50 50)"><rect width="2" height="3" x="49" y="25.5" fill="#efabab" rx="1" ry="1.5"><animate attributeName="opacity" begin="-0.08281573498964803s" dur="0.8695652173913042s" keyTimes="0;1" repeatCount="indefinite" values="1;0"/></rect></g><g transform="rotate(325.7142857142857 50 50)"><rect width="2" height="3" x="49" y="25.5" fill="#efabab" rx="1" ry="1.5"><animate attributeName="opacity" begin="-0.041407867494824016s" dur="0.8695652173913042s" keyTimes="0;1" repeatCount="indefinite" values="1;0"/></rect></g><g transform="rotate(342.85714285714283 50 50)"><rect width="2" height="3" x="49" y="25.5" fill="#efabab" rx="1" ry="1.5"><animate attributeName="opacity" begin="0s" dur="0.8695652173913042s" keyTimes="0;1" repeatCount="indefinite" values="1;0"/></rect></g></svg>