<?xml version="1.0" encoding="utf-8"?>
<svg xmlns="http://www.w3.org/2000/svg" xmlns:xlink="http://www.w3.org/1999/xlink" style="margin: auto; background: rgb(237, 222, 222); display: block; shape-rendering: auto;" width="197px" height="197px" viewBox="0 0 100 100" preserveAspectRatio="xMidYMid">
<g transform="rotate(0 50 50)">
  <rect x="49" y="25.5" rx="1" ry="1.5" width="2" height="3" fill="#efabab">
    <animate attributeName="opacity" values="1;0" keyTimes="0;1" dur="0.8695652173913042s" begin="-0.8281573498964803s" repeatCount="indefinite"></animate>
  </rect>
</g><g transform="rotate(17.142857142857142 50 50)">
  <rect x="49" y="25.5" rx="1" ry="1.5" width="2" height="3" fill="#efabab">
    <animate attributeName="opacity" values="1;0" keyTimes="0;1" dur="0.8695652173913042s" begin="-0.7867494824016562s" repeatCount="indefinite"></animate>
  </rect>
</g><g transform="rotate(34.285714285714285 50 50)">
  <rect x="49" y="25.5" rx="1" ry="1.5" width="2" height="3" fill="#efabab">
    <animate attributeName="opacity" values="1;0" keyTimes="0;1" dur="0.8695652173913042s" begin="-0.7453416149068323s" repeatCount="indefinite"></animate>
  </rect>
</g><g transform="rotate(51.42857142857143 50 50)">
  <rect x="49" y="25.5" rx="1" ry="1.5" width="2" height="3" fill="#efabab">
    <animate attributeName="opacity" values="1;0" keyTimes="0;1" dur="0.8695652173913042s" begin="-0.7039337474120082s" repeatCount="indefinite"></animate>
  </rect>
</g><g transform="rotate(68.57142857142857 50 50)">
  <rect x="49" y="25.5" rx="1" ry="1.5" width="2" height="3" fill="#efabab">
    <animate attributeName="opacity" values="1;0" keyTimes="0;1" dur="0.8695652173913042s" begin="-0.6625258799171843s" repeatCount="indefinite"></animate>
  </rect>
</g><g transform="rotate(85.71428571428571 50 50)">
  <rect x="49" y="25.5" rx="1" ry="1.5" width="2" height="3" fill="#efabab">
    <animate attributeName="opacity" values="1;0" keyTimes="0;1" dur="0.8695652173913042s" begin="-0.6211180124223602s" repeatCount="indefinite"></animate>
  </rect>
</g><g transform="rotate(102.85714285714286 50 50)">
  <rect x="49" y="25.5" rx="1" ry="1.5" width="2" height="3" fill="#efabab">
    <animate attributeName="opacity" values="1;0" keyTimes="0;1" dur="0.8695652173913042s" begin="-0.5797101449275361s" repeatCount="indefinite"></animate>
  </rect>
</g><g transform="rotate(120 50 50)">
  <rect x="49" y="25.5" rx="1" ry="1.5" width="2" height="3" fill="#efabab">
    <animate attributeName="opacity" values="1;0" keyTimes="0;1" dur="0.8695652173913042s" begin="-0.5383022774327122s" repeatCount="indefinite"></animate>
  </rect>
</g><g transform="rotate(137.14285714285714 50 50)">
  <rect x="49" y="25.5" rx="1" ry="1.5" width="2" height="3" fill="#efabab">
    <animate attributeName="opacity" values="1;0" keyTimes="0;1" dur="0.8695652173913042s" begin="-0.49689440993788814s" repeatCount="indefinite"></animate>
  </rect>
</g><g transform="rotate(154.28571428571428 50 50)">
  <rect x="49" y="25.5" rx="1" ry="1.5" width="2" height="3" fill="#efabab">
    <animate attributeName="opacity" values="1;0" keyTimes="0;1" dur="0.8695652173913042s" begin="-0.45548654244306414s" repeatCount="indefinite"></animate>
  </rect>
</g><g transform="rotate(171.42857142857142 50 50)">
  <rect x="49" y="25.5" rx="1" ry="1.5" width="2" height="3" fill="#efabab">
    <animate attributeName="opacity" values="1;0" keyTimes="0;1" dur="0.8695652173913042s" begin="-0.41407867494824013s" repeatCount="indefinite"></animate>
  </rect>
</g><g transform="rotate(188.57142857142858 50 50)">
  <rect x="49" y="25.5" rx="1" ry="1.5" width="2" height="3" fill="#efabab">
    <animate attributeName="opacity" values="1;0" keyTimes="0;1" dur="0.8695652173913042s" begin="-0.37267080745341613s" repeatCount="indefinite"></animate>
  </rect>
</g><g transform="rotate(205.71428571428572 50 50)">
  <rect x="49" y="25.5" rx="1" ry="1.5" width="2" height="3" fill="#efabab">
    <animate attributeName="opacity" values="1;0" keyTimes="0;1" dur="0.8695652173913042s" begin="-0.33126293995859213s" repeatCount="indefinite"></animate>
  </rect>
</g><g transform="rotate(222.85714285714286 50 50)">
  <rect x="49" y="25.5" rx="1" ry="1.5" width="2" height="3" fill="#efabab">
    <animate attributeName="opacity" values="1;0" keyTimes="0;1" dur="0.8695652173913042s" begin="-0.28985507246376807s" repeatCount="indefinite"></animate>
  </rect>
</g><g transform="rotate(240 50 50)">
  <rect x="49" y="25.5" rx="1" ry="1.5" width="2" height="3" fill="#efabab">
    <animate attributeName="opacity" values="1;0" keyTimes="0;1" dur="0.8695652173913042s" begin="-0.24844720496894407s" repeatCount="indefinite"></animate>
  </rect>
</g><g transform="rotate(257.14285714285717 50 50)">
  <rect x="49" y="25.5" rx="1" ry="1.5" width="2" height="3" fill="#efabab">
    <animate attributeName="opacity" values="1;0" keyTimes="0;1" dur="0.8695652173913042s" begin="-0.20703933747412007s" repeatCount="indefinite"></animate>
  </rect>
</g><g transform="rotate(274.2857142857143 50 50)">
  <rect x="49" y="25.5" rx="1" ry="1.5" width="2" height="3" fill="#efabab">
    <animate attributeName="opacity" values="1;0" keyTimes="0;1" dur="0.8695652173913042s" begin="-0.16563146997929606s" repeatCount="indefinite"></animate>
  </rect>
</g><g transform="rotate(291.42857142857144 50 50)">
  <rect x="49" y="25.5" rx="1" ry="1.5" width="2" height="3" fill="#efabab">
    <animate attributeName="opacity" values="1;0" keyTimes="0;1" dur="0.8695652173913042s" begin="-0.12422360248447203s" repeatCount="indefinite"></animate>
  </rect>
</g><g transform="rotate(308.57142857142856 50 50)">
  <rect x="49" y="25.5" rx="1" ry="1.5" width="2" height="3" fill="#efabab">
    <animate attributeName="opacity" values="1;0" keyTimes="0;1" dur="0.8695652173913042s" begin="-0.08281573498964803s" repeatCount="indefinite"></animate>
  </rect>
</g><g transform="rotate(325.7142857142857 50 50)">
  <rect x="49" y="25.5" rx="1" ry="1.5" width="2" height="3" fill="#efabab">
    <animate attributeName="opacity" values="1;0" keyTimes="0;1" dur="0.8695652173913042s" begin="-0.041407867494824016s" repeatCount="indefinite"></animate>
  </rect>
</g><g transform="rotate(342.85714285714283 50 50)">
  <rect x="49" y="25.5" rx="1" ry="1.5" width="2" height="3" fill="#efabab">
    <animate attributeName="opacity" values="1;0" keyTimes="0;1" dur="0.8695652173913042s" begin="0s" repeatCount="indefinite"></animate>
  </rect>
</g>
<!-- [ldio] generated by https://loading.io/ --></svg>